<svg xmlns="http://www.w3.org/2000/svg" xmlns:xlink="http://www.w3.org/1999/xlink" width="215" zoomAndPan="magnify" viewBox="0 0 161.25 161.249997" height="215" preserveAspectRatio="xMidYMid meet" version="1.0"><defs><clipPath id="af46b47168"><path d="M 0 0 L 160.265625 0 L 160.265625 160.265625 L 0 160.265625 Z M 0 0 " clip-rule="nonzero"/></clipPath><clipPath id="3761787eba"><path d="M 80.132812 0 C 35.875 0 0 35.875 0 80.132812 C 0 124.390625 35.875 160.265625 80.132812 160.265625 C 124.390625 160.265625 160.265625 124.390625 160.265625 80.132812 C 160.265625 35.875 124.390625 0 80.132812 0 Z M 80.132812 0 " clip-rule="nonzero"/></clipPath><clipPath id="df19430978"><path d="M 27 27 L 134 27 L 134 134.851562 L 27 134.851562 Z M 27 27 " clip-rule="nonzero"/></clipPath></defs><g clip-path="url(#af46b47168)"><g clip-path="url(#3761787eba)"><path fill="#e8b0b0" d="M 0 0 L 160.265625 0 L 160.265625 160.265625 L 0 160.265625 Z M 0 0 " fill-opacity="1" fill-rule="nonzero"/></g></g><g clip-path="url(#df19430978)"><path fill="#d0292c" d="M 127.523438 56.042969 C 127.402344 55.824219 127.246094 55.636719 127.050781 55.480469 C 126.855469 55.324219 126.640625 55.210938 126.402344 55.140625 C 126.164062 55.070312 125.917969 55.046875 125.671875 55.074219 C 125.421875 55.097656 125.191406 55.167969 124.96875 55.285156 C 124.75 55.402344 124.558594 55.554688 124.398438 55.746094 C 124.242188 55.9375 124.125 56.152344 124.046875 56.390625 C 123.972656 56.628906 123.945312 56.871094 123.964844 57.121094 C 123.984375 57.367188 124.050781 57.601562 124.164062 57.824219 C 141.652344 89.96875 117.082031 130.746094 80.425781 130.28125 C 78.808594 130.277344 77.191406 130.195312 75.582031 130.035156 C 73.972656 129.875 72.375 129.636719 70.785156 129.320312 C 69.199219 129.003906 67.632812 128.609375 66.082031 128.136719 C 64.535156 127.667969 63.011719 127.121094 61.519531 126.5 C 60.023438 125.882812 58.5625 125.191406 57.136719 124.425781 C 55.710938 123.664062 54.324219 122.832031 52.976562 121.933594 C 51.632812 121.03125 50.335938 120.070312 49.082031 119.042969 C 47.832031 118.015625 46.636719 116.929688 45.492188 115.785156 C 44.347656 114.640625 43.261719 113.445312 42.234375 112.191406 C 41.207031 110.941406 40.242188 109.644531 39.34375 108.296875 C 38.445312 106.953125 37.613281 105.566406 36.851562 104.140625 C 36.085938 102.714844 35.394531 101.253906 34.773438 99.757812 C 34.152344 98.261719 33.609375 96.742188 33.136719 95.191406 C 32.667969 93.644531 32.273438 92.078125 31.957031 90.488281 C 31.640625 88.902344 31.398438 87.304688 31.238281 85.695312 C 31.078125 84.082031 31 82.46875 30.996094 80.851562 C 30.539062 44.191406 71.300781 19.621094 103.453125 37.113281 C 103.675781 37.230469 103.910156 37.300781 104.164062 37.324219 C 104.414062 37.347656 104.660156 37.324219 104.902344 37.25 C 105.140625 37.175781 105.359375 37.058594 105.554688 36.898438 C 105.75 36.738281 105.90625 36.546875 106.023438 36.324219 C 106.140625 36.101562 106.210938 35.863281 106.234375 35.613281 C 106.257812 35.363281 106.234375 35.117188 106.160156 34.875 C 106.085938 34.632812 105.96875 34.414062 105.808594 34.222656 C 105.648438 34.027344 105.457031 33.871094 105.234375 33.753906 C 104.34375 33.285156 103.441406 32.839844 102.527344 32.421875 C 101.613281 32.003906 100.6875 31.613281 99.75 31.25 C 98.8125 30.882812 97.863281 30.546875 96.910156 30.234375 C 95.953125 29.921875 94.988281 29.640625 94.015625 29.382812 C 93.042969 29.125 92.066406 28.898438 91.078125 28.695312 C 90.09375 28.496094 89.105469 28.320312 88.109375 28.175781 C 87.113281 28.03125 86.113281 27.914062 85.113281 27.824219 C 84.113281 27.738281 83.109375 27.675781 82.101562 27.644531 C 81.097656 27.613281 80.09375 27.609375 79.085938 27.636719 C 78.082031 27.660156 77.078125 27.714844 76.074219 27.796875 C 75.074219 27.878906 74.074219 27.988281 73.078125 28.128906 C 72.082031 28.265625 71.089844 28.433594 70.105469 28.628906 C 69.117188 28.824219 68.136719 29.046875 67.164062 29.296875 C 66.1875 29.546875 65.222656 29.824219 64.265625 30.132812 C 63.304688 30.4375 62.359375 30.769531 61.417969 31.128906 C 60.480469 31.488281 59.550781 31.871094 58.632812 32.285156 C 57.714844 32.695312 56.808594 33.132812 55.917969 33.597656 C 55.023438 34.058594 54.144531 34.546875 53.28125 35.058594 C 52.414062 35.574219 51.566406 36.109375 50.730469 36.671875 C 49.898438 37.230469 49.078125 37.816406 48.277344 38.421875 C 47.476562 39.03125 46.691406 39.660156 45.925781 40.3125 C 45.160156 40.964844 44.414062 41.636719 43.683594 42.332031 C 42.957031 43.023438 42.25 43.738281 41.5625 44.472656 C 40.875 45.207031 40.210938 45.960938 39.566406 46.734375 C 38.921875 47.503906 38.296875 48.292969 37.699219 49.101562 C 37.097656 49.910156 36.523438 50.734375 35.96875 51.574219 C 35.417969 52.414062 34.886719 53.265625 34.382812 54.136719 C 33.878906 55.007812 33.398438 55.890625 32.945312 56.789062 C 32.488281 57.683594 32.058594 58.59375 31.65625 59.515625 C 31.253906 60.4375 30.878906 61.367188 30.527344 62.3125 C 30.175781 63.253906 29.855469 64.207031 29.558594 65.167969 C 29.261719 66.128906 28.992188 67.097656 28.75 68.074219 C 28.507812 69.050781 28.296875 70.03125 28.109375 71.019531 C 27.925781 72.007812 27.765625 73 27.636719 74 C 27.507812 74.996094 27.40625 75.996094 27.332031 77 C 27.261719 78.003906 27.21875 79.007812 27.199219 80.011719 C 27.183594 81.015625 27.199219 82.023438 27.238281 83.027344 C 27.28125 84.03125 27.351562 85.035156 27.449219 86.035156 C 27.546875 87.035156 27.671875 88.035156 27.828125 89.027344 C 27.980469 90.023438 28.164062 91.011719 28.375 91.992188 C 28.585938 92.976562 28.824219 93.953125 29.089844 94.921875 C 29.355469 95.894531 29.648438 96.855469 29.96875 97.808594 C 30.289062 98.761719 30.636719 99.707031 31.007812 100.640625 C 31.382812 101.574219 31.78125 102.496094 32.210938 103.40625 C 32.636719 104.316406 33.085938 105.214844 33.5625 106.101562 C 34.042969 106.984375 34.542969 107.855469 35.070312 108.714844 C 35.59375 109.570312 36.144531 110.410156 36.71875 111.238281 C 37.292969 112.0625 37.890625 112.871094 38.511719 113.664062 C 39.132812 114.457031 39.773438 115.230469 40.4375 115.984375 C 41.101562 116.742188 41.785156 117.476562 42.492188 118.191406 C 43.195312 118.910156 43.921875 119.605469 44.667969 120.28125 C 45.410156 120.957031 46.175781 121.609375 46.957031 122.242188 C 47.738281 122.875 48.539062 123.484375 49.355469 124.074219 C 50.171875 124.660156 51.003906 125.222656 51.851562 125.761719 C 52.699219 126.300781 53.5625 126.816406 54.441406 127.308594 C 55.320312 127.800781 56.210938 128.265625 57.113281 128.707031 C 58.019531 129.144531 58.933594 129.5625 59.863281 129.949219 C 60.789062 130.339844 61.726562 130.699219 62.675781 131.035156 C 63.625 131.371094 64.582031 131.679688 65.546875 131.960938 C 66.511719 132.242188 67.484375 132.496094 68.464844 132.71875 C 69.445312 132.945312 70.429688 133.144531 71.421875 133.316406 C 72.414062 133.484375 73.40625 133.625 74.40625 133.742188 C 75.40625 133.855469 76.40625 133.941406 77.410156 133.996094 C 78.414062 134.054688 79.421875 134.082031 80.425781 134.082031 C 119.910156 134.574219 146.367188 90.671875 127.523438 56.042969 Z M 127.523438 56.042969 " fill-opacity="1" fill-rule="nonzero"/></g><path fill="#d0292c" d="M 80.425781 65.640625 C 82.085938 65.640625 83.695312 65.910156 85.261719 66.449219 C 85.503906 66.53125 85.746094 66.566406 86 66.550781 C 86.25 66.535156 86.488281 66.472656 86.714844 66.359375 C 86.941406 66.25 87.140625 66.101562 87.304688 65.914062 C 87.472656 65.722656 87.597656 65.511719 87.679688 65.273438 C 88.515625 61.910156 82.59375 62.042969 80.425781 61.839844 C 55.207031 62.882812 55.210938 98.820312 80.425781 99.863281 C 81.050781 99.859375 81.667969 99.828125 82.289062 99.769531 C 82.910156 99.707031 83.523438 99.613281 84.132812 99.492188 C 84.746094 99.371094 85.347656 99.21875 85.941406 99.039062 C 86.539062 98.855469 87.125 98.648438 87.699219 98.410156 C 88.273438 98.171875 88.835938 97.902344 89.382812 97.609375 C 89.933594 97.316406 90.464844 96.996094 90.984375 96.652344 C 91.5 96.304688 92 95.933594 92.480469 95.539062 C 92.960938 95.144531 93.421875 94.726562 93.863281 94.289062 C 94.304688 93.847656 94.722656 93.386719 95.117188 92.90625 C 95.511719 92.425781 95.882812 91.925781 96.226562 91.40625 C 96.574219 90.890625 96.894531 90.355469 97.1875 89.808594 C 97.480469 89.257812 97.746094 88.695312 97.984375 88.121094 C 98.222656 87.546875 98.433594 86.960938 98.613281 86.367188 C 98.796875 85.769531 98.945312 85.167969 99.070312 84.558594 C 99.191406 83.949219 99.28125 83.332031 99.34375 82.714844 C 99.40625 82.09375 99.4375 81.472656 99.4375 80.851562 C 99.242188 78.644531 99.371094 72.785156 96.023438 73.617188 C 95.785156 73.699219 95.570312 73.824219 95.382812 73.988281 C 95.195312 74.15625 95.042969 74.351562 94.933594 74.578125 C 94.824219 74.808594 94.761719 75.046875 94.746094 75.296875 C 94.730469 75.550781 94.761719 75.792969 94.84375 76.03125 C 95.378906 77.59375 95.640625 79.199219 95.636719 80.851562 C 94.875 100.996094 65.980469 100.996094 65.21875 80.851562 C 65.21875 79.851562 65.316406 78.863281 65.511719 77.882812 C 65.707031 76.90625 65.996094 75.953125 66.378906 75.03125 C 66.761719 74.109375 67.230469 73.234375 67.785156 72.40625 C 68.339844 71.574219 68.972656 70.808594 69.675781 70.101562 C 70.382812 69.394531 71.152344 68.765625 71.980469 68.210938 C 72.8125 67.65625 73.6875 67.1875 74.609375 66.804688 C 75.53125 66.421875 76.480469 66.132812 77.460938 65.9375 C 78.4375 65.742188 79.429688 65.640625 80.425781 65.640625 Z M 80.425781 65.640625 " fill-opacity="1" fill-rule="nonzero"/><path fill="#d0292c" d="M 98.628906 51.828125 C 98.75 51.609375 98.828125 51.375 98.855469 51.121094 C 98.882812 50.871094 98.863281 50.625 98.792969 50.382812 C 98.726562 50.140625 98.613281 49.921875 98.453125 49.722656 C 98.296875 49.527344 98.109375 49.367188 97.886719 49.246094 C 95.214844 47.765625 92.402344 46.644531 89.445312 45.878906 C 86.488281 45.113281 83.480469 44.730469 80.425781 44.730469 C 32.511719 46.710938 32.515625 114.992188 80.425781 116.972656 C 81.207031 116.972656 81.988281 116.949219 82.769531 116.898438 C 83.546875 116.847656 84.324219 116.773438 85.101562 116.671875 C 85.875 116.570312 86.644531 116.445312 87.410156 116.292969 C 88.179688 116.144531 88.9375 115.96875 89.695312 115.765625 C 90.449219 115.566406 91.199219 115.34375 91.9375 115.09375 C 92.679688 114.84375 93.410156 114.574219 94.132812 114.277344 C 94.855469 113.980469 95.570312 113.660156 96.273438 113.320312 C 96.972656 112.976562 97.664062 112.613281 98.34375 112.222656 C 99.023438 111.835938 99.6875 111.429688 100.339844 110.996094 C 100.992188 110.566406 101.628906 110.117188 102.25 109.644531 C 102.875 109.171875 103.480469 108.679688 104.070312 108.167969 C 104.660156 107.65625 105.234375 107.128906 105.792969 106.578125 C 106.347656 106.03125 106.886719 105.464844 107.40625 104.882812 C 107.925781 104.296875 108.425781 103.699219 108.90625 103.082031 C 109.386719 102.464844 109.847656 101.835938 110.285156 101.191406 C 110.726562 100.542969 111.144531 99.886719 111.542969 99.210938 C 111.9375 98.539062 112.3125 97.855469 112.667969 97.15625 C 113.019531 96.460938 113.347656 95.75 113.65625 95.03125 C 113.960938 94.3125 114.242188 93.585938 114.503906 92.847656 C 114.761719 92.113281 114.996094 91.367188 115.207031 90.613281 C 115.417969 89.863281 115.605469 89.105469 115.765625 88.339844 C 115.929688 87.574219 116.066406 86.808594 116.175781 86.035156 C 116.289062 85.261719 116.375 84.484375 116.4375 83.707031 C 116.496094 82.925781 116.535156 82.144531 116.542969 81.363281 C 116.554688 80.582031 116.539062 79.804688 116.5 79.023438 C 116.460938 78.242188 116.394531 77.464844 116.304688 76.6875 C 116.214844 75.914062 116.097656 75.140625 115.957031 74.371094 C 115.816406 73.601562 115.652344 72.839844 115.460938 72.082031 C 115.269531 71.324219 115.058594 70.574219 114.816406 69.828125 C 114.578125 69.085938 114.316406 68.351562 114.027344 67.625 C 113.742188 66.898438 113.433594 66.179688 113.097656 65.472656 C 112.765625 64.765625 112.410156 64.070312 112.03125 63.386719 C 111.910156 63.167969 111.75 62.976562 111.554688 62.820312 C 111.355469 62.660156 111.136719 62.546875 110.894531 62.476562 C 110.648438 62.40625 110.402344 62.386719 110.152344 62.414062 C 109.902344 62.441406 109.664062 62.519531 109.445312 62.640625 C 109.222656 62.761719 109.035156 62.921875 108.875 63.121094 C 108.71875 63.320312 108.605469 63.539062 108.539062 63.785156 C 108.46875 64.027344 108.449219 64.273438 108.476562 64.523438 C 108.507812 64.777344 108.582031 65.011719 108.707031 65.230469 C 120.757812 86.128906 104.570312 113.589844 80.425781 113.167969 C 79.367188 113.167969 78.3125 113.113281 77.257812 113.011719 C 76.207031 112.90625 75.160156 112.75 74.125 112.542969 C 73.085938 112.335938 72.0625 112.078125 71.046875 111.769531 C 70.035156 111.460938 69.039062 111.105469 68.0625 110.699219 C 67.085938 110.292969 66.132812 109.839844 65.199219 109.34375 C 64.265625 108.84375 63.359375 108.300781 62.480469 107.710938 C 61.597656 107.125 60.75 106.492188 59.933594 105.820312 C 59.113281 105.152344 58.332031 104.441406 57.582031 103.691406 C 56.835938 102.945312 56.125 102.160156 55.453125 101.34375 C 54.78125 100.527344 54.152344 99.675781 53.566406 98.796875 C 52.976562 97.917969 52.433594 97.011719 51.933594 96.078125 C 51.433594 95.144531 50.980469 94.191406 50.578125 93.210938 C 50.171875 92.234375 49.816406 91.242188 49.507812 90.226562 C 49.199219 89.214844 48.941406 88.191406 48.734375 87.152344 C 48.527344 86.117188 48.371094 85.070312 48.265625 84.015625 C 48.160156 82.964844 48.109375 81.910156 48.105469 80.851562 C 47.691406 56.707031 75.144531 40.519531 96.046875 52.570312 C 96.265625 52.691406 96.5 52.769531 96.75 52.796875 C 97.003906 52.828125 97.25 52.804688 97.492188 52.738281 C 97.734375 52.667969 97.953125 52.554688 98.152344 52.394531 C 98.347656 52.238281 98.507812 52.050781 98.628906 51.828125 Z M 98.628906 51.828125 " fill-opacity="1" fill-rule="nonzero"/><path fill="#d0292c" d="M 130.160156 44.558594 L 116.320312 58.398438 C 115.949219 58.761719 115.507812 58.945312 114.988281 58.949219 L 114.835938 58.949219 L 105.730469 58.246094 L 81.777344 82.199219 C 81.597656 82.371094 81.390625 82.503906 81.15625 82.597656 C 80.925781 82.6875 80.683594 82.730469 80.433594 82.730469 C 80.1875 82.726562 79.945312 82.675781 79.714844 82.578125 C 79.484375 82.484375 79.28125 82.347656 79.105469 82.171875 C 78.929688 81.992188 78.792969 81.789062 78.695312 81.558594 C 78.601562 81.332031 78.550781 81.089844 78.546875 80.839844 C 78.542969 80.589844 78.589844 80.351562 78.679688 80.117188 C 78.773438 79.886719 78.902344 79.679688 79.078125 79.5 L 103.03125 55.546875 L 102.328125 46.441406 C 102.289062 45.863281 102.472656 45.367188 102.878906 44.957031 L 116.71875 31.117188 C 116.984375 30.859375 117.296875 30.691406 117.660156 30.613281 C 118.019531 30.535156 118.375 30.5625 118.722656 30.691406 C 119.070312 30.816406 119.355469 31.027344 119.582031 31.320312 C 119.804688 31.617188 119.9375 31.945312 119.96875 32.3125 L 120.597656 40.679688 L 128.960938 41.308594 C 129.332031 41.339844 129.660156 41.46875 129.953125 41.695312 C 130.246094 41.921875 130.457031 42.207031 130.585938 42.554688 C 130.714844 42.902344 130.738281 43.257812 130.664062 43.617188 C 130.585938 43.980469 130.417969 44.292969 130.160156 44.558594 Z M 130.160156 44.558594 " fill-opacity="1" fill-rule="nonzero"/></svg>