<svg xmlns="http://www.w3.org/2000/svg" xmlns:xlink="http://www.w3.org/1999/xlink" width="215" zoomAndPan="magnify" viewBox="0 0 161.25 161.249997" height="215" preserveAspectRatio="xMidYMid meet" version="1.0"><defs><clipPath id="748393e8b7"><path d="M 0 0 L 160.265625 0 L 160.265625 160.265625 L 0 160.265625 Z M 0 0 " clip-rule="nonzero"/></clipPath><clipPath id="1a18c26b38"><path d="M 80.132812 0 C 35.875 0 0 35.875 0 80.132812 C 0 124.390625 35.875 160.265625 80.132812 160.265625 C 124.390625 160.265625 160.265625 124.390625 160.265625 80.132812 C 160.265625 35.875 124.390625 0 80.132812 0 Z M 80.132812 0 " clip-rule="nonzero"/></clipPath><clipPath id="1a4409cedb"><path d="M 78 29.789062 L 82 29.789062 L 82 45 L 78 45 Z M 78 29.789062 " clip-rule="nonzero"/></clipPath><clipPath id="71b8e566ee"><path d="M 78 115 L 82 115 L 82 130.570312 L 78 130.570312 Z M 78 115 " clip-rule="nonzero"/></clipPath><clipPath id="714f2c3a9d"><path d="M 123 59 L 140.6875 59 L 140.6875 68 L 123 68 Z M 123 59 " clip-rule="nonzero"/></clipPath><clipPath id="5ff7d8eb2b"><path d="M 19.75 92 L 37 92 L 37 101 L 19.75 101 Z M 19.75 92 " clip-rule="nonzero"/></clipPath></defs><g clip-path="url(#748393e8b7)"><g clip-path="url(#1a18c26b38)"><path fill="#619bd4" d="M 0 0 L 160.265625 0 L 160.265625 160.265625 L 0 160.265625 Z M 0 0 " fill-opacity="1" fill-rule="nonzero"/></g></g><g clip-path="url(#1a4409cedb)"><path fill="#112e4b" d="M 80.039062 44.535156 C 81.132812 44.535156 81.859375 43.808594 81.859375 42.714844 L 81.859375 31.609375 C 81.859375 30.515625 81.132812 29.789062 80.039062 29.789062 C 78.945312 29.789062 78.21875 30.515625 78.21875 31.609375 L 78.21875 42.898438 C 78.21875 43.808594 78.945312 44.535156 80.039062 44.535156 Z M 80.039062 44.535156 " fill-opacity="1" fill-rule="nonzero"/></g><g clip-path="url(#71b8e566ee)"><path fill="#112e4b" d="M 80.039062 115.546875 C 78.945312 115.546875 78.21875 116.273438 78.21875 117.367188 L 78.21875 128.65625 C 78.21875 129.746094 78.945312 130.476562 80.039062 130.476562 C 81.132812 130.476562 81.859375 129.746094 81.859375 128.65625 L 81.859375 117.367188 C 81.859375 116.273438 81.132812 115.546875 80.039062 115.546875 Z M 80.039062 115.546875 " fill-opacity="1" fill-rule="nonzero"/></g><path fill="#112e4b" d="M 115.359375 55.097656 L 125.558594 47.085938 C 126.285156 46.539062 126.46875 45.265625 125.921875 44.535156 C 125.375 43.808594 124.101562 43.625 123.371094 44.171875 L 113.175781 52.183594 C 112.449219 52.730469 112.265625 54.003906 112.8125 54.730469 C 113.359375 55.640625 114.449219 55.640625 115.359375 55.097656 Z M 115.359375 55.097656 " fill-opacity="1" fill-rule="nonzero"/><path fill="#112e4b" d="M 44.714844 104.984375 L 34.519531 112.8125 C 33.792969 113.359375 33.609375 114.632812 34.15625 115.363281 C 34.703125 116.089844 35.976562 116.273438 36.703125 115.726562 L 46.902344 107.714844 C 47.628906 107.167969 47.8125 105.894531 47.265625 105.167969 C 46.71875 104.4375 45.625 104.4375 44.714844 104.984375 Z M 44.714844 104.984375 " fill-opacity="1" fill-rule="nonzero"/><path fill="#112e4b" d="M 115.359375 104.984375 C 114.632812 104.4375 113.359375 104.4375 112.8125 105.347656 C 112.265625 106.078125 112.265625 107.351562 113.175781 107.898438 L 123.371094 115.910156 C 124.101562 116.457031 125.375 116.457031 125.921875 115.546875 C 126.46875 114.816406 126.46875 113.542969 125.558594 112.996094 Z M 115.359375 104.984375 " fill-opacity="1" fill-rule="nonzero"/><path fill="#112e4b" d="M 44.714844 55.097656 C 45.445312 55.640625 46.71875 55.640625 47.265625 54.730469 C 47.8125 54.003906 47.8125 52.730469 46.902344 52.183594 L 36.703125 44.171875 C 35.976562 43.625 34.703125 43.625 34.15625 44.535156 C 33.609375 45.445312 33.609375 46.539062 34.519531 47.085938 Z M 44.714844 55.097656 " fill-opacity="1" fill-rule="nonzero"/><path fill="#112e4b" d="M 98.0625 47.265625 C 98.972656 47.8125 100.066406 47.449219 100.613281 46.539062 L 106.257812 36.160156 C 106.804688 35.25 106.441406 34.15625 105.527344 33.609375 C 104.617188 33.066406 103.527344 33.429688 102.980469 34.339844 L 97.335938 44.71875 C 96.789062 45.628906 97.152344 46.71875 98.0625 47.265625 Z M 98.0625 47.265625 " fill-opacity="1" fill-rule="nonzero"/><path fill="#112e4b" d="M 62.011719 112.8125 C 61.101562 112.269531 60.011719 112.632812 59.464844 113.542969 L 53.820312 123.921875 C 53.273438 124.832031 53.636719 125.921875 54.546875 126.46875 C 55.457031 127.015625 56.550781 126.652344 57.097656 125.742188 L 62.742188 115.363281 C 63.289062 114.453125 62.921875 113.359375 62.011719 112.8125 Z M 62.011719 112.8125 " fill-opacity="1" fill-rule="nonzero"/><path fill="#112e4b" d="M 138.484375 97.15625 L 125.195312 92.785156 C 124.28125 92.421875 123.191406 92.96875 122.828125 93.878906 C 122.460938 94.789062 123.007812 95.878906 123.917969 96.246094 L 137.210938 100.613281 C 138.121094 100.980469 139.214844 100.433594 139.578125 99.523438 C 139.941406 98.613281 139.394531 97.519531 138.484375 97.15625 Z M 138.484375 97.15625 " fill-opacity="1" fill-rule="nonzero"/><path fill="#112e4b" d="M 21.59375 62.925781 L 34.882812 67.296875 C 35.792969 67.660156 36.886719 67.113281 37.25 66.203125 C 37.613281 65.292969 37.070312 64.199219 36.160156 63.835938 L 22.867188 59.464844 C 21.957031 59.101562 20.863281 59.648438 20.5 60.558594 C 20.136719 61.46875 20.683594 62.5625 21.59375 62.925781 Z M 21.59375 62.925781 " fill-opacity="1" fill-rule="nonzero"/><g clip-path="url(#714f2c3a9d)"><path fill="#112e4b" d="M 123.191406 66.566406 C 123.554688 67.476562 124.464844 68.023438 125.558594 67.839844 L 139.03125 63.652344 C 139.941406 63.289062 140.488281 62.378906 140.304688 61.285156 C 139.941406 60.375 139.03125 59.828125 137.9375 60.011719 L 124.464844 64.199219 C 123.371094 64.5625 122.828125 65.65625 123.191406 66.566406 Z M 123.191406 66.566406 " fill-opacity="1" fill-rule="nonzero"/></g><g clip-path="url(#5ff7d8eb2b)"><path fill="#112e4b" d="M 36.886719 93.515625 C 36.523438 92.601562 35.613281 92.058594 34.519531 92.238281 L 21.226562 96.425781 C 20.316406 96.792969 19.773438 97.703125 19.953125 98.792969 C 20.316406 99.703125 21.226562 100.25 22.320312 100.070312 L 35.792969 95.878906 C 36.703125 95.515625 37.25 94.425781 36.886719 93.515625 Z M 36.886719 93.515625 " fill-opacity="1" fill-rule="nonzero"/></g><path fill="#112e4b" d="M 99.703125 113.722656 C 99.15625 112.8125 98.0625 112.449219 97.152344 112.996094 C 96.242188 113.542969 95.878906 114.632812 96.425781 115.546875 L 101.886719 125.921875 C 102.433594 126.832031 103.527344 127.199219 104.4375 126.652344 C 105.347656 126.105469 105.710938 125.011719 105.164062 124.101562 Z M 99.703125 113.722656 " fill-opacity="1" fill-rule="nonzero"/><path fill="#112e4b" d="M 60.375 46.355469 C 60.921875 47.265625 62.011719 47.628906 62.921875 47.085938 C 63.832031 46.539062 64.199219 45.445312 63.652344 44.535156 L 58.191406 34.15625 C 57.644531 33.246094 56.550781 32.882812 55.640625 33.429688 C 54.730469 33.976562 54.367188 35.066406 54.914062 35.976562 Z M 60.375 46.355469 " fill-opacity="1" fill-rule="nonzero"/><path fill="#112e4b" d="M 80.039062 55.640625 C 54 55.640625 33.246094 77.855469 32.335938 78.765625 C 31.605469 79.492188 31.605469 80.585938 32.335938 81.316406 C 33.246094 82.226562 54 104.4375 80.039062 104.4375 C 106.074219 104.4375 126.832031 82.226562 127.742188 81.316406 C 128.472656 80.585938 128.472656 79.492188 127.742188 78.765625 C 126.832031 77.855469 106.074219 55.640625 80.039062 55.640625 Z M 80.039062 100.796875 C 68.566406 100.796875 59.28125 91.511719 59.28125 80.039062 C 59.28125 68.570312 68.566406 59.285156 80.039062 59.285156 C 91.507812 59.285156 100.796875 68.570312 100.796875 80.039062 C 100.796875 91.511719 91.507812 100.796875 80.039062 100.796875 Z M 63.105469 62.5625 C 58.554688 66.929688 55.640625 73.121094 55.640625 80.039062 C 55.640625 86.960938 58.554688 93.148438 63.105469 97.519531 C 49.8125 92.601562 39.617188 83.316406 36.339844 80.039062 C 39.617188 76.761719 49.8125 67.476562 63.105469 62.5625 Z M 96.972656 97.519531 C 101.523438 93.148438 104.4375 86.960938 104.4375 80.039062 C 104.4375 73.121094 101.523438 66.929688 96.972656 62.5625 C 110.261719 67.476562 120.460938 76.761719 123.738281 80.039062 C 120.460938 83.316406 110.261719 92.601562 96.972656 97.519531 Z M 96.972656 97.519531 " fill-opacity="1" fill-rule="nonzero"/><path fill="#112e4b" d="M 80.039062 66.203125 C 72.390625 66.203125 66.199219 72.394531 66.199219 80.039062 C 66.199219 87.6875 72.390625 93.878906 80.039062 93.878906 C 87.6875 93.878906 93.875 87.6875 93.875 80.039062 C 93.875 72.394531 87.6875 66.203125 80.039062 66.203125 Z M 80.039062 90.238281 C 74.394531 90.238281 69.84375 85.683594 69.84375 80.039062 C 69.84375 74.394531 74.394531 69.84375 80.039062 69.84375 C 85.683594 69.84375 90.234375 74.394531 90.234375 80.039062 C 90.234375 85.683594 85.683594 90.238281 80.039062 90.238281 Z M 80.039062 90.238281 " fill-opacity="1" fill-rule="nonzero"/></svg>